<svg height="38" viewBox="0 0 145 38" width="145" xmlns="http://www.w3.org/2000/svg"><g fill="#dbdbda"><path d="m0 0v-37.56h-16.28c-.07.45-.21.96-.21 1.47-.01 11.2-.01 22.39-.01 33.59 0 .71.03 1.42-.01 2.13-.04.82.31 1.13 1.12 1.12 4.74-.02 9.48-.01 14.22-.01 1.31 0 1.32.01.9 1.2-.89 2.48-1.8 4.96-2.68 7.44-.2.56-.55.73-1.14.73-4.01-.03-8.01-.01-12.09-.01-.1.38-.29.76-.29 1.13-.02 3.97-.01 7.94-.01 11.99.36.02.67.05.98.05 6.87 0 13.74-.01 20.61.02.66 0 .93-.17 1.18-.84 1.33-3.61 2.77-7.19 4.13-10.79 1.5-3.97 2.95-7.96 4.44-11.93.55-1.45 1.15-2.88 1.84-4.61.34.63.61 1.03.78 1.46 1.06 2.78 2.12 5.56 3.15 8.35.89 2.42 1.71 4.86 2.61 7.27.99 2.64 2.03 5.25 3.04 7.87.33.87.6 1.76.98 2.61.12.26.51.57.77.57 7 .03 13.99.03 21.07.03v-60.82h-16.12v37.78c-.39-.41-.67-.58-.76-.82-1.27-3.43-2.53-6.86-3.75-10.31-.9-2.53-1.7-5.1-2.6-7.63-1.11-3.12-2.29-6.21-3.38-9.34-.21-.6-.52-.78-1.09-.78-3.24.01-6.49.02-9.73-.01-.61-.01-.85.28-1.02.76-1.32 3.58-2.64 7.17-3.95 10.75-1.7 4.5-3.35 9.01-5 13.53-.32.9-.57 1.83-.9 2.73-.12.34-.38.62-.58.92-.07-.01-.15-.03-.22-.04" transform="matrix(.62725737 0 0 -.62422145 80.588371 14.53)"/><path d="m0 0c0-2.13.01-4.26 0-6.39 0-.58.14-1.05.8-1.04 3.23.04 6.47-.02 9.68.24 1.76.14 3.35 1.02 4.49 2.55 1.49 2.01 1.75 4.19 1.29 6.6-.51 2.66-3.33 5.26-6.04 5.29-3.12.03-6.23-.01-9.35.02-.66 0-.89-.21-.88-.88.03-2.13.01-4.26.01-6.39m0-40.44h-16.91v60.82c.28.01.58.04.89.04 9.93 0 19.85.05 29.78-.04 1.65-.01 3.3-.54 4.93-.92 3.71-.87 7.01-2.54 9.63-5.34 2.26-2.41 3.62-5.3 4.36-8.55.55-2.4.5-4.82.25-7.16-.24-2.24-1.03-4.48-1.94-6.57-1.34-3.08-3.62-5.46-6.45-7.28-.5-.32-1.03-.58-1.57-.83-.72-.33-1.01-.71-.52-1.52 1.36-2.3 2.65-4.65 3.98-6.98 1.5-2.62 3-5.23 4.5-7.85 1.25-2.18 2.52-4.36 3.75-6.56.19-.34.23-.76.36-1.23h-18.55c-.43.88-.81 1.71-1.24 2.52-2.08 3.99-4.17 7.97-6.27 11.95-1.01 1.92-2.01 3.85-3.08 5.74-.2.35-.74.67-1.15.7-1.3.09-2.61.01-3.91.05-.61.01-.79-.28-.83-.78-.02-.22-.01-.44-.01-.67 0-6.14 0-12.28 0-18.42z" transform="matrix(.62725737 0 0 -.62422145 45.329983 12.7578)"/><path d="m0 0h45.17v-1.07c0-3.53 0-7.06 0-10.59 0-1.27 0-1.27-1.23-1.27-8.46 0-16.92 0-25.38 0-.29 0-.58.04-.86-.02-.61-.13-1.01-.37-.99-1.18.06-2.96.05-5.92.01-8.87-.01-.83.29-1.01 1.06-1.01 7 .02 14 .01 20.99.01.55 0 1.1.04 1.63-.06.17-.03.36-.46.37-.72.04-1.21.02-2.42.02-3.63 0-2.45-.01-4.9.01-7.35 0-.7-.07-1.16-1-.88-.44.13-.98-.14-1.47-.14-6.23-.01-12.47-.01-18.7-.01-.65 0-1.3-.04-1.94.01-.66.05-.94-.23-.94-.85 0-3.12-.01-6.23 0-9.35 0-.61.21-.78.93-.75 1.86.07 3.72-.08 5.58-.11 1.16-.02 2.33-.01 3.49-.01 5.73 0 11.45 0 17.18-.01.52 0 1.04-.11 1.55-.17v-12.72l-45.48-.01z" transform="matrix(.62725737 0 0 -.62422145 116.48927 .0374)"/><path d="m0 0c0-2.03 0-4.07 0-6.1 0-1.24 0-1.24 1.3-1.25 2.48 0 4.96-.01 7.44.01.62.01 1.25.08 1.86.19 2.3.44 4.12 1.59 5.23 3.7.86 1.64.96 3.33.65 5.2-.58 3.45-3.38 5.35-6.26 5.55-3.11.22-6.23.04-9.35.06-.66.01-.89-.21-.88-.88.03-2.16.01-4.32.01-6.48m0-40.32h-17.11v60.84h1.08c9.99 0 19.97.03 29.95-.03 1.39-.01 2.82-.23 4.14-.65 2.11-.67 4.26-1.38 6.19-2.43 3.07-1.68 5.34-4.2 6.98-7.37 2.05-3.95 2.32-8.17 1.9-12.39-.45-4.51-2.2-8.65-5.48-11.92-2.12-2.12-4.66-3.65-7.58-4.55-2.75-.85-5.54-1.2-8.41-1.13-2.61.06-5.21.01-7.82.01-.93 0-1.85-.02-2.78.01-.79.03-1.1-.24-1.09-1.09.05-6.08.03-12.16.03-18.23 0-.34 0-.68 0-1.07" transform="matrix(.62725737 0 0 -.62422145 10.729865 12.8179)"/></g></svg>